<?xml version="1.0" encoding="utf-8"?>
<svg id="master-artboard" viewBox="0 0 335.986 235.19" version="1.1" xmlns="http://www.w3.org/2000/svg" x="0px" y="0px" width="335.9859924316406px" height="235.19000244140625px" enable-background="new 0 0 335.986 235.19">
<g>
	<g>
		<path d="M 0 -0.148 H 335.985992 V 235.042002 H 0 V -0.148 Z" fill="#0E3C54"/>
	</g>
</g>
<g>
	<g>
		<path fill="none" stroke="#FFFFFF" stroke-width="2" stroke-linejoin="round" stroke-miterlimit="10" d="M119.756,23.332&#10;&#9;&#9;&#9;c5.621,0,11.24,0,16.863,0"/>
	</g>
	
		<path d="M 141.369003 23.332001 L 150.875 23.332001" fill="none" stroke="#FFFFFF" stroke-width="2" stroke-linejoin="round" stroke-miterlimit="10"/>
</g>
<g>
	<g>
		<path fill="none" stroke="#FFFFFF" stroke-width="2" stroke-linejoin="round" stroke-miterlimit="10" d="M137.086,31.871&#10;&#9;&#9;&#9;c-4.186,0-8.369,0-12.555,0"/>
	</g>
	
		<path d="M 120.996002 31.871 L 113.919998 31.871" fill="none" stroke="#FFFFFF" stroke-width="2" stroke-linejoin="round" stroke-miterlimit="10"/>
</g>
<g>
	<g>
		<path fill="none" stroke="#FFFFFF" stroke-width="2" stroke-linejoin="round" stroke-miterlimit="10" d="M310.745,104.029&#10;&#9;&#9;&#9;c-5.622,0-11.24,0-16.863,0"/>
	</g>
	
		<path d="M 289.131012 104.028999 L 279.626007 104.028999" fill="none" stroke="#FFFFFF" stroke-width="2" stroke-linejoin="round" stroke-miterlimit="10"/>
</g>
<g>
	<g>
		<path fill="none" stroke="#FFFFFF" stroke-width="2" stroke-linejoin="round" stroke-miterlimit="10" d="M293.415,95.49&#10;&#9;&#9;&#9;c4.186,0,8.369,0,12.555,0"/>
	</g>
	
		<path d="M 309.505005 95.489998 L 316.580994 95.489998" fill="none" stroke="#FFFFFF" stroke-width="2" stroke-linejoin="round" stroke-miterlimit="10"/>
</g>
<g>
	<g>
		<path fill="none" stroke="#FFFFFF" stroke-width="2" stroke-linejoin="round" stroke-miterlimit="10" d="M90.021,204.432&#10;&#9;&#9;&#9;c5.621,0,11.24,0,16.862,0"/>
	</g>
	
		<path d="M 111.634003 204.432007 L 121.139 204.432007" fill="none" stroke="#FFFFFF" stroke-width="2" stroke-linejoin="round" stroke-miterlimit="10"/>
</g>
<g>
	<g>
		<path fill="none" stroke="#FFFFFF" stroke-width="2" stroke-linejoin="round" stroke-miterlimit="10" d="M66.34,212.544&#10;&#9;&#9;&#9;c5.621,0,11.24,0,16.863,0"/>
	</g>
	
		<path d="M 87.953003 212.544006 L 97.459 212.544006" fill="none" stroke="#FFFFFF" stroke-width="2" stroke-linejoin="round" stroke-miterlimit="10"/>
</g>
<g>
	
		<path d="M 261.605011 21.941 L 268.925995 29.261999" fill="none" stroke="#FFFFFF" stroke-width="2" stroke-linejoin="round" stroke-miterlimit="10"/>
	
		<path d="M 261.605011 29.261999 L 268.925995 21.941" fill="none" stroke="#FFFFFF" stroke-width="2" stroke-linejoin="round" stroke-miterlimit="10"/>
</g>
<g>
	
		<path d="M 37.942001 119.107002 L 45.264 126.428001" fill="none" stroke="#FFFFFF" stroke-width="2" stroke-linejoin="round" stroke-miterlimit="10"/>
	
		<path d="M 37.942001 126.428001 L 45.264 119.107002" fill="none" stroke="#FFFFFF" stroke-width="2" stroke-linejoin="round" stroke-miterlimit="10"/>
</g>
<g>
	
		<path d="M 296.032013 126.945 L 303.354004 134.266006" fill="none" stroke="#FFFFFF" stroke-width="2" stroke-linejoin="round" stroke-miterlimit="10"/>
	
		<path d="M 296.032013 134.266006 L 303.354004 126.945" fill="none" stroke="#FFFFFF" stroke-width="2" stroke-linejoin="round" stroke-miterlimit="10"/>
</g>
<g>
	<path fill="#24A8BF" d="M181.301,140.642h-12.818h-12.82c0,0,2.34,14.016-8.139,15.465l20.959,0.001l20.957-0.001&#10;&#9;&#9;C178.962,154.657,181.301,140.642,181.301,140.642z"/>
	<path d="M 146.278 155.227005 H 190.687 V 157.934005 H 146.278 V 155.227005 Z" fill="#B8BE33"/>
	<path fill="#3596DA" d="M237.487,138.401c0,1.686-1.367,3.052-3.054,3.052H102.529c-1.685,0-3.051-1.366-3.051-3.052V56.105&#10;&#9;&#9;c0-1.686,1.366-3.052,3.051-3.052h131.904c1.687,0,3.054,1.366,3.054,3.052V138.401z"/>
	<path d="M 102.528999 56.297001 H 233.980003 V 127.718998 H 102.528999 V 56.297001 Z" fill="#FAF9F9"/>
	<path fill="#B8BE33" d="M99.479,131.382v7.02c0,1.686,1.366,3.052,3.051,3.052h131.904c1.687,0,3.054-1.366,3.054-3.052v-7.02&#10;&#9;&#9;H99.479z"/>
</g>
<g>
	<path fill="#3596DA" d="M57.446,198.354c0,2.17-1.761,3.93-3.932,3.93H32.289c-2.169,0-3.929-1.76-3.929-3.93V151.1&#10;&#9;&#9;c0-2.172,1.76-3.931,3.929-3.931h21.226c2.171,0,3.932,1.759,3.932,3.931V198.354z"/>
	<path d="M 45.295 197.300003 A 2.392 2.392 0 0 1 42.903 199.692003 A 2.392 2.392 0 0 1 40.511 197.300003 A 2.392 2.392 0 0 1 42.903 194.908003 A 2.392 2.392 0 0 1 45.295 197.300003 Z" fill="#919191"/>
	<path d="M 44.099 149.987 A 1.196 1.196 0 0 1 42.903 151.182999 A 1.196 1.196 0 0 1 41.707 149.987 A 1.196 1.196 0 0 1 42.903 148.791 A 1.196 1.196 0 0 1 44.099 149.987 Z" fill="#032E4F"/>
	<path d="M 29.868 152.326004 H 55.937 V 193.067005 H 29.868 V 152.326004 Z" fill="#ECF0F1"/>
</g>
<g>
	<path fill="#3596DA" d="M131.394,178.538c0.003,1.261-1.017,2.284-2.276,2.286l-60.196,0.119c-1.26,0.002-2.282-1.017-2.287-2.275&#10;&#9;&#9;L66.46,90.262c-0.003-1.258,1.016-2.283,2.275-2.285l60.197-0.12c1.26-0.003,2.283,1.019,2.286,2.276L131.394,178.538z"/>
	<path d="M 70.931 94.021004 H 126.924 V 167.867004 H 70.931 V 94.021004 Z" fill="#FAF9F9"/>
	<path d="M 103.337997 173.789001 A 4.333 4.333 0 0 1 99.004997 178.122002 A 4.333 4.333 0 0 1 94.671997 173.789001 A 4.333 4.333 0 0 1 99.004997 169.456001 A 4.333 4.333 0 0 1 103.337997 173.789001 Z" fill="#A8A8A8"/>
	<path d="M 100.034003 91.200996 A 1.193 1.193 0 0 1 98.841003 92.393996 A 1.193 1.193 0 0 1 97.648003 91.200996 A 1.193 1.193 0 0 1 98.841003 90.007996 A 1.193 1.193 0 0 1 100.034003 91.200996 Z" fill="#032E4F"/>
</g>
<path fill-rule="evenodd" clip-rule="evenodd" fill="#FAF9F9" d="M49.475,90.397c-1.234-1.611-3.173-2.655-5.346-2.655h-0.098&#10;&#9;c0.5-0.314,0.963-0.686,1.379-1.104c1.441-1.439,2.332-3.429,2.332-5.628v-0.006c0-2.194-0.891-4.182-2.332-5.628&#10;&#9;c-1.441-1.438-3.43-2.324-5.625-2.324V73.05h-0.002h-0.004v0.003c-2.194,0-4.188,0.886-5.627,2.324&#10;&#9;c-1.442,1.446-2.332,3.434-2.332,5.631v0.003v0.003c0,2.196,0.89,4.186,2.332,5.625c0.416,0.418,0.881,0.789,1.379,1.104h-0.098&#10;&#9;c-3.701,0-6.732,3.031-6.732,6.732v6.732h20.773h1.39v-6.732C50.864,92.949,50.345,91.531,49.475,90.397z"/>
<path fill-rule="evenodd" clip-rule="evenodd" fill="#FAF9F9" d="M58.936,61.664c-2.68,0-5.043,1.345-6.461,3.395&#10;&#9;c-0.871,1.265-1.381,2.797-1.381,4.451c0,1.65,0.51,3.181,1.381,4.449c0.825,1.194,1.973,2.146,3.314,2.732&#10;&#9;c0.179,0.477,0.291,0.982,0.27,1.504c-0.075,2.063-3.133,2.368-3.133,2.368s1.215,0.209,3.812-0.784&#10;&#9;c4.141-1.584,10.039-5.422,10.039-10.27C66.777,65.179,63.264,61.664,58.936,61.664z"/>
<g id="email">
	<path fill="#174F78" d="M245.838,45.146l8.316,3.231v48.878c0,2.772-2.244,5.015-5.012,5.015h-67.057&#10;&#9;&#9;c-2.768,0-5.01-2.242-5.01-5.015V48.377l8.312-2.539"/>
	<path fill="#FFFFFF" d="M190.889,79.092c-2.77,0-5.039-2.268-5.039-5.039V30.227c0-2.771,2.27-5.038,5.039-5.038h49.449&#10;&#9;&#9;c2.772,0,5.041,2.268,5.041,5.038v43.826c0,2.771-2.269,5.039-5.041,5.039H190.889z"/>
	<g>
		<path d="M 206.311996 36.844002 H 226.268997 V 38.774002 H 206.311996 V 36.844002 Z" fill="#CFCFCF"/>
		<path d="M 206.311996 44.173 H 237.217997 V 46.104 H 206.311996 V 44.173 Z" fill="#CFCFCF"/>
		<path d="M 191.479004 51.504002 H 237.219006 V 53.433002 H 191.479004 V 51.504002 Z" fill="#CFCFCF"/>
		<path d="M 191.479004 58.833 H 237.219006 V 60.763 H 191.479004 V 58.833 Z" fill="#CFCFCF"/>
		<path d="M 191.479004 66.164001 H 237.219006 V 68.092001 H 191.479004 V 66.164001 Z" fill="#CFCFCF"/>
	</g>
	<path fill="#3596DA" d="M208.494,73.107l-31.08,25.923c0.713,1.888,2.529,3.239,4.672,3.239h67.057c2.141,0,3.958-1.352,4.67-3.239&#10;&#9;&#9;l-30.517-25.923H208.494z"/>
	<g>
		<path fill="#2A7FB5" d="M223.133,73.24l30.68,25.79c-0.094,0.248-0.211,0.488-0.342,0.72l0.008,0.01&#10;&#9;&#9;&#9;c0.428-0.738,0.676-1.59,0.676-2.505V48.384L223.133,73.24z"/>
		<path fill="#2A7FB5" d="M177.414,99.03l30.933-25.79l-31.271-24.856v48.871c0,0.915,0.248,1.767,0.67,2.505l0.012-0.01&#10;&#9;&#9;&#9;C177.627,99.519,177.51,99.278,177.414,99.03z"/>
	</g>
	<path d="M 191.479004 36.669998 H 200.698004 V 45.887999 H 191.479004 V 36.669998 Z" fill="#00C9F0"/>
</g>
<g>
	<path fill="#E35437" d="M93.723,44.991c0.004-0.104,0.018-0.204,0.018-0.312c0-6.254-4.322-11.483-10.137-12.904&#10;&#9;&#9;c-1.603-7.624-8.363-13.349-16.463-13.349c-7.311,0-13.514,4.669-15.836,11.185c-1.317-0.432-2.723-0.672-4.188-0.672&#10;&#9;&#9;c-7.424,0-13.443,6.021-13.443,13.445c0,0.895,0.1,1.763,0.271,2.606H93.723z"/>
</g>
<g>
	<path fill="#B8BE33" d="M308.906,77.978c0.003-0.104,0.016-0.204,0.016-0.312c0-6.254-4.321-11.483-10.137-12.904&#10;&#9;&#9;c-1.602-7.624-8.363-13.349-16.463-13.349c-7.31,0-13.513,4.669-15.835,11.185c-1.317-0.432-2.723-0.672-4.187-0.672&#10;&#9;&#9;c-7.425,0-13.445,6.021-13.445,13.445c0,0.895,0.102,1.763,0.272,2.606H308.906z"/>
</g>
<g>
	<path fill="#DCDBDD" d="M300.373,189.601c0,7.265-5.889,13.154-13.154,13.154l0,0c-7.266,0-13.156-5.89-13.156-13.154v-14.784&#10;&#9;&#9;c0-7.267,5.891-13.156,13.156-13.156l0,0c7.266,0,13.154,5.89,13.154,13.156V189.601z"/>
	<path fill="#FFFFFF" d="M298.334,175.356c-0.307-5.88-5.158-10.557-11.115-10.557c-5.958,0-10.808,4.677-11.117,10.557H298.334z"/>
	<path fill="#4E4E4E" d="M289.247,178.931c0,0.942-0.909,1.705-2.028,1.705l0,0c-1.12,0-2.029-0.763-2.029-1.705v-7.147&#10;&#9;&#9;c0-0.942,0.909-1.706,2.029-1.706l0,0c1.119,0,2.028,0.764,2.028,1.706V178.931z"/>
</g>
<path d="M 287.917999 163.104004 L 287.917999 141.194 L 251.604004 141.194 L 251.604004 126.894997 L 267.916992 126.894997 L 267.80899 113.079002 L 238.643997 113.079002" fill="none" stroke="#FFFFFF" stroke-width="2" stroke-linecap="round" stroke-linejoin="round" stroke-miterlimit="10"/>
<g>
	<g>
		<path d="M 105.12899780273438 136.0570068359375 L 110.5770034790039 130.60699462890625 L 105.12899780273438 125.15899658203125 L 103.5719985961914 126.71700286865234 L 107.46399688720703 130.60699462890625 L 103.5719985961914 134.4980010986328 Z" fill-rule="evenodd" clip-rule="evenodd" fill="#6D808A"/>
	</g>
	<g>
		<path d="M 93.73500061035156 125.15699768066406 L 88.28700256347656 130.6060028076172 L 93.73500061035156 136.05499267578125 L 95.29199981689453 134.4980010986328 L 91.4000015258789 130.6060028076172 L 95.29199981689453 126.71700286865234 Z" fill-rule="evenodd" clip-rule="evenodd" fill="#6D808A"/>
	</g>
	<path d="M 76.650002 118.361 H 81.841002 V 121.413 H 76.650002 V 118.361 Z" fill="#6D808A"/>
	<path d="M 76.650002 126.938004 H 81.841002 V 129.989004 H 76.650002 V 126.938004 Z" fill="#00E0F9"/>
	<path d="M 76.650002 135.514008 H 81.841002 V 138.565008 H 76.650002 V 135.514008 Z" fill="#F7A934"/>
	<path d="M 76.650002 144.089996 H 81.841002 V 147.140996 H 76.650002 V 144.089996 Z" fill="#6D808A"/>
	<path d="M 76.650002 152.664993 H 81.841002 V 155.716993 H 76.650002 V 152.664993 Z" fill="#00E0F9"/>
	<path d="M 116.303001 129.675003 H 121.272001 V 131.537003 H 116.303001 V 129.675003 Z" fill="#00E0F9"/>
	<path d="M 87.580002 118.361 H 121.271004 V 120.224 H 87.580002 V 118.361 Z" fill="#00E0F9"/>
	<path d="M 88.287003 145.641998 H 121.271004 V 147.503998 H 88.287003 V 145.641998 Z" fill="#00E0F9"/>
	<path d="M 100.223 151.324997 H 120.931999 V 153.186997 H 100.223 V 151.324997 Z" fill="#F7A934"/>
	<path d="M 116.303001 123.694 H 121.272001 V 125.556 H 116.303001 V 123.694 Z" fill="#6D808A"/>
	<path d="M 113.214996 155.809006 H 121.271996 V 157.671006 H 113.214996 V 155.809006 Z" fill="#00E0F9"/>
	<path d="M 116.303001 135.136993 H 121.272001 V 136.999993 H 116.303001 V 135.136993 Z" fill="#6D808A"/>
	<path d="M 88.287003 155.809006 H 108.996002 V 157.671006 H 88.287003 V 155.809006 Z" fill="#6D808A"/>
</g>
<path d="M 77.223 100.760002 H 121.843998 V 113.093002 H 77.223 V 100.760002 Z" fill="#00E0F9"/>
<g>
	<path fill="#E35437" d="M259.192,206.185c0,2.424-1.821,4.388-4.069,4.388H145.042c-2.247,0-4.069-1.964-4.069-4.388v-31.937&#10;&#9;&#9;c0-2.424,1.822-4.388,4.069-4.388h110.081c2.248,0,4.069,1.964,4.069,4.388V206.185z"/>
	<g>
		<g>
			<g>
				<path fill="#FFFFFF" d="M152.367,178.437c0,1.121-0.877,2.042-1.947,2.042h-1.925c-1.071,0-1.948-0.921-1.948-2.042v-2.024&#10;&#9;&#9;&#9;&#9;&#9;c0-1.122,0.877-2.042,1.948-2.042h1.925c1.07,0,1.947,0.92,1.947,2.042V178.437z"/>
			</g>
			<g>
				<path fill="#FFFFFF" d="M162.371,178.437c0,1.121-0.875,2.042-1.945,2.042h-1.925c-1.071,0-1.946-0.921-1.946-2.042v-2.024&#10;&#9;&#9;&#9;&#9;&#9;c0-1.122,0.875-2.042,1.946-2.042h1.925c1.07,0,1.945,0.92,1.945,2.042V178.437z"/>
			</g>
			<g>
				<path fill="#FFFFFF" d="M172.379,178.437c0,1.121-0.877,2.042-1.947,2.042h-1.926c-1.068,0-1.947-0.921-1.947-2.042v-2.024&#10;&#9;&#9;&#9;&#9;&#9;c0-1.122,0.879-2.042,1.947-2.042h1.926c1.07,0,1.947,0.92,1.947,2.042V178.437z"/>
			</g>
			<g>
				<path fill="#FFFFFF" d="M182.385,178.437c0,1.121-0.876,2.042-1.947,2.042h-1.926c-1.072,0-1.945-0.921-1.945-2.042v-2.024&#10;&#9;&#9;&#9;&#9;&#9;c0-1.122,0.873-2.042,1.945-2.042h1.926c1.071,0,1.947,0.92,1.947,2.042V178.437z"/>
			</g>
			<g>
				<path fill="#FFFFFF" d="M192.391,178.437c0,1.121-0.877,2.042-1.947,2.042h-1.928c-1.068,0-1.945-0.921-1.945-2.042v-2.024&#10;&#9;&#9;&#9;&#9;&#9;c0-1.122,0.877-2.042,1.945-2.042h1.928c1.07,0,1.947,0.92,1.947,2.042V178.437z"/>
			</g>
			<g>
				<path fill="#FFFFFF" d="M202.396,178.437c0,1.121-0.877,2.042-1.948,2.042h-1.925c-1.07,0-1.946-0.921-1.946-2.042v-2.024&#10;&#9;&#9;&#9;&#9;&#9;c0-1.122,0.876-2.042,1.946-2.042h1.925c1.071,0,1.948,0.92,1.948,2.042V178.437z"/>
			</g>
			<g>
				<path fill="#FFFFFF" d="M212.4,178.437c0,1.121-0.873,2.042-1.947,2.042h-1.922c-1.072,0-1.948-0.921-1.948-2.042v-2.024&#10;&#9;&#9;&#9;&#9;&#9;c0-1.122,0.876-2.042,1.948-2.042h1.922c1.074,0,1.947,0.92,1.947,2.042V178.437z"/>
			</g>
			<g>
				<path fill="#FFFFFF" d="M222.406,178.437c0,1.121-0.875,2.042-1.946,2.042h-1.925c-1.07,0-1.946-0.921-1.946-2.042v-2.024&#10;&#9;&#9;&#9;&#9;&#9;c0-1.122,0.876-2.042,1.946-2.042h1.925c1.071,0,1.946,0.92,1.946,2.042V178.437z"/>
			</g>
			<g>
				<path fill="#FFFFFF" d="M152.367,186.965c0,1.123-0.877,2.043-1.947,2.043h-1.925c-1.071,0-1.948-0.92-1.948-2.043v-2.023&#10;&#9;&#9;&#9;&#9;&#9;c0-1.125,0.877-2.043,1.948-2.043h1.925c1.07,0,1.947,0.918,1.947,2.043V186.965z"/>
			</g>
			<g>
				<path fill="#FFFFFF" d="M162.371,186.965c0,1.123-0.875,2.043-1.945,2.043h-1.925c-1.071,0-1.946-0.92-1.946-2.043v-2.023&#10;&#9;&#9;&#9;&#9;&#9;c0-1.125,0.875-2.043,1.946-2.043h1.925c1.07,0,1.945,0.918,1.945,2.043V186.965z"/>
			</g>
			<g>
				<path fill="#FFFFFF" d="M172.379,186.965c0,1.123-0.877,2.043-1.947,2.043h-1.926c-1.068,0-1.947-0.92-1.947-2.043v-2.023&#10;&#9;&#9;&#9;&#9;&#9;c0-1.125,0.879-2.043,1.947-2.043h1.926c1.07,0,1.947,0.918,1.947,2.043V186.965z"/>
			</g>
			<g>
				<path fill="#FFFFFF" d="M182.385,186.965c0,1.123-0.876,2.043-1.947,2.043h-1.926c-1.072,0-1.945-0.92-1.945-2.043v-2.023&#10;&#9;&#9;&#9;&#9;&#9;c0-1.125,0.873-2.043,1.945-2.043h1.926c1.071,0,1.947,0.918,1.947,2.043V186.965z"/>
			</g>
			<g>
				<path fill="#FFFFFF" d="M192.391,186.965c0,1.123-0.877,2.043-1.947,2.043h-1.928c-1.068,0-1.945-0.92-1.945-2.043v-2.023&#10;&#9;&#9;&#9;&#9;&#9;c0-1.125,0.877-2.043,1.945-2.043h1.928c1.07,0,1.947,0.918,1.947,2.043V186.965z"/>
			</g>
			<g>
				<path fill="#FFFFFF" d="M202.396,186.965c0,1.123-0.877,2.043-1.948,2.043h-1.925c-1.07,0-1.946-0.92-1.946-2.043v-2.023&#10;&#9;&#9;&#9;&#9;&#9;c0-1.125,0.876-2.043,1.946-2.043h1.925c1.071,0,1.948,0.918,1.948,2.043V186.965z"/>
			</g>
			<g>
				<path fill="#FFFFFF" d="M212.4,186.965c0,1.123-0.873,2.043-1.947,2.043h-1.922c-1.072,0-1.948-0.92-1.948-2.043v-2.023&#10;&#9;&#9;&#9;&#9;&#9;c0-1.125,0.876-2.043,1.948-2.043h1.922c1.074,0,1.947,0.918,1.947,2.043V186.965z"/>
			</g>
			<g>
				<path fill="#FFFFFF" d="M222.406,186.965c0,1.123-0.875,2.043-1.946,2.043h-1.925c-1.07,0-1.946-0.92-1.946-2.043v-2.023&#10;&#9;&#9;&#9;&#9;&#9;c0-1.125,0.876-2.043,1.946-2.043h1.925c1.071,0,1.946,0.918,1.946,2.043V186.965z"/>
			</g>
			<g>
				<path fill="#FFFFFF" d="M233.605,178.437c0,1.121-0.875,2.042-1.945,2.042h-1.926c-1.071,0-1.947-0.921-1.947-2.042v-2.024&#10;&#9;&#9;&#9;&#9;&#9;c0-1.122,0.876-2.042,1.947-2.042h1.926c1.07,0,1.945,0.92,1.945,2.042V178.437z"/>
			</g>
			<g>
				<path fill="#FFFFFF" d="M243.611,178.437c0,1.121-0.875,2.042-1.945,2.042h-1.926c-1.07,0-1.947-0.921-1.947-2.042v-2.024&#10;&#9;&#9;&#9;&#9;&#9;c0-1.122,0.877-2.042,1.947-2.042h1.926c1.07,0,1.945,0.92,1.945,2.042V178.437z"/>
			</g>
			<g>
				<path fill="#FFFFFF" d="M253.617,178.437c0,1.121-0.875,2.042-1.945,2.042h-1.926c-1.072,0-1.947-0.921-1.947-2.042v-2.024&#10;&#9;&#9;&#9;&#9;&#9;c0-1.122,0.875-2.042,1.947-2.042h1.926c1.07,0,1.945,0.92,1.945,2.042V178.437z"/>
			</g>
			<g>
				<path fill="#FFFFFF" d="M233.605,186.965c0,1.123-0.875,2.043-1.945,2.043h-1.926c-1.071,0-1.947-0.92-1.947-2.043v-2.023&#10;&#9;&#9;&#9;&#9;&#9;c0-1.125,0.876-2.043,1.947-2.043h1.926c1.07,0,1.945,0.918,1.945,2.043V186.965z"/>
			</g>
			<g>
				<path fill="#FFFFFF" d="M252.324,186.965c0,1.123-0.875,2.043-1.945,2.043H239.74c-1.07,0-1.947-0.92-1.947-2.043v-2.023&#10;&#9;&#9;&#9;&#9;&#9;c0-1.125,0.877-2.043,1.947-2.043h10.639c1.07,0,1.945,0.918,1.945,2.043V186.965z"/>
			</g>
			<g>
				<path fill="#FFFFFF" d="M253.617,186.965c0,1.123-0.875,2.043-1.945,2.043h-1.926c-1.072,0-1.947-0.92-1.947-2.043v-2.023&#10;&#9;&#9;&#9;&#9;&#9;c0-1.125,0.875-2.043,1.947-2.043h1.926c1.07,0,1.945,0.918,1.945,2.043V186.965z"/>
			</g>
			<g>
				<g>
					<path fill="#FFFFFF" d="M243.611,195.494c0,1.123-0.875,2.042-1.945,2.042h-1.926c-1.07,0-1.947-0.919-1.947-2.042v-2.026&#10;&#9;&#9;&#9;&#9;&#9;&#9;c0-1.122,0.877-2.042,1.947-2.042h1.926c1.07,0,1.945,0.92,1.945,2.042V195.494z"/>
				</g>
				<g>
					<path fill="#FFFFFF" d="M233.605,204.02c0,1.124-0.875,2.043-1.945,2.043h-1.926c-1.071,0-1.947-0.919-1.947-2.043v-2.021&#10;&#9;&#9;&#9;&#9;&#9;&#9;c0-1.123,0.876-2.043,1.947-2.043h1.926c1.07,0,1.945,0.92,1.945,2.043V204.02z"/>
				</g>
				<g>
					<path fill="#FFFFFF" d="M243.611,204.02c0,1.124-0.875,2.043-1.945,2.043h-1.926c-1.07,0-1.947-0.919-1.947-2.043v-2.021&#10;&#9;&#9;&#9;&#9;&#9;&#9;c0-1.123,0.877-2.043,1.947-2.043h1.926c1.07,0,1.945,0.92,1.945,2.043V204.02z"/>
				</g>
				<g>
					<path fill="#FFFFFF" d="M253.617,204.02c0,1.124-0.875,2.043-1.945,2.043h-1.926c-1.072,0-1.947-0.919-1.947-2.043v-2.021&#10;&#9;&#9;&#9;&#9;&#9;&#9;c0-1.123,0.875-2.043,1.947-2.043h1.926c1.07,0,1.945,0.92,1.945,2.043V204.02z"/>
				</g>
			</g>
			<g>
				<path fill="#FFFFFF" d="M161.701,195.494c0,1.123-0.874,2.042-1.945,2.042h-11.261c-1.071,0-1.948-0.919-1.948-2.042v-2.026&#10;&#9;&#9;&#9;&#9;&#9;c0-1.122,0.877-2.042,1.948-2.042h11.261c1.071,0,1.945,0.92,1.945,2.042V195.494z"/>
			</g>
			<g>
				<path fill="#FFFFFF" d="M162.371,195.494c0,1.123-0.875,2.042-1.945,2.042h-1.925c-1.071,0-1.946-0.919-1.946-2.042v-2.026&#10;&#9;&#9;&#9;&#9;&#9;c0-1.122,0.875-2.042,1.946-2.042h1.925c1.07,0,1.945,0.92,1.945,2.042V195.494z"/>
			</g>
			<g>
				<path fill="#FFFFFF" d="M172.379,195.494c0,1.123-0.877,2.042-1.947,2.042h-1.926c-1.068,0-1.947-0.919-1.947-2.042v-2.026&#10;&#9;&#9;&#9;&#9;&#9;c0-1.122,0.879-2.042,1.947-2.042h1.926c1.07,0,1.947,0.92,1.947,2.042V195.494z"/>
			</g>
			<g>
				<path fill="#FFFFFF" d="M182.385,195.494c0,1.123-0.876,2.042-1.947,2.042h-1.926c-1.072,0-1.945-0.919-1.945-2.042v-2.026&#10;&#9;&#9;&#9;&#9;&#9;c0-1.122,0.873-2.042,1.945-2.042h1.926c1.071,0,1.947,0.92,1.947,2.042V195.494z"/>
			</g>
			<g>
				<path fill="#FFFFFF" d="M192.391,195.494c0,1.123-0.877,2.042-1.947,2.042h-1.928c-1.068,0-1.945-0.919-1.945-2.042v-2.026&#10;&#9;&#9;&#9;&#9;&#9;c0-1.122,0.877-2.042,1.945-2.042h1.928c1.07,0,1.947,0.92,1.947,2.042V195.494z"/>
			</g>
			<g>
				<path fill="#FFFFFF" d="M202.396,195.494c0,1.123-0.877,2.042-1.948,2.042h-1.925c-1.07,0-1.946-0.919-1.946-2.042v-2.026&#10;&#9;&#9;&#9;&#9;&#9;c0-1.122,0.876-2.042,1.946-2.042h1.925c1.071,0,1.948,0.92,1.948,2.042V195.494z"/>
			</g>
			<g>
				<path fill="#FFFFFF" d="M212.4,195.494c0,1.123-0.873,2.042-1.947,2.042h-1.922c-1.072,0-1.948-0.919-1.948-2.042v-2.026&#10;&#9;&#9;&#9;&#9;&#9;c0-1.122,0.876-2.042,1.948-2.042h1.922c1.074,0,1.947,0.92,1.947,2.042V195.494z"/>
			</g>
			<g>
				<path fill="#FFFFFF" d="M222.406,195.494c0,1.123-0.875,2.042-1.946,2.042h-1.925c-1.07,0-1.946-0.919-1.946-2.042v-2.026&#10;&#9;&#9;&#9;&#9;&#9;c0-1.122,0.876-2.042,1.946-2.042h1.925c1.071,0,1.946,0.92,1.946,2.042V195.494z"/>
			</g>
			<g>
				<path fill="#FFFFFF" d="M152.367,204.02c0,1.124-0.877,2.043-1.947,2.043h-1.925c-1.071,0-1.948-0.919-1.948-2.043v-2.021&#10;&#9;&#9;&#9;&#9;&#9;c0-1.123,0.877-2.043,1.948-2.043h1.925c1.07,0,1.947,0.92,1.947,2.043V204.02z"/>
			</g>
			<g>
				<path fill="#FFFFFF" d="M162.371,204.02c0,1.124-0.875,2.043-1.945,2.043h-1.925c-1.071,0-1.946-0.919-1.946-2.043v-2.021&#10;&#9;&#9;&#9;&#9;&#9;c0-1.123,0.875-2.043,1.946-2.043h1.925c1.07,0,1.945,0.92,1.945,2.043V204.02z"/>
			</g>
			<g>
				<path fill="#FFFFFF" d="M202.396,204.02c0,1.124-0.877,2.043-1.948,2.043h-31.942c-1.068,0-1.947-0.919-1.947-2.043v-2.021&#10;&#9;&#9;&#9;&#9;&#9;c0-1.123,0.879-2.043,1.947-2.043h31.942c1.071,0,1.948,0.92,1.948,2.043V204.02z"/>
			</g>
			<g>
				<path fill="#FFFFFF" d="M212.4,204.02c0,1.124-0.873,2.043-1.947,2.043h-1.922c-1.072,0-1.948-0.919-1.948-2.043v-2.021&#10;&#9;&#9;&#9;&#9;&#9;c0-1.123,0.876-2.043,1.948-2.043h1.922c1.074,0,1.947,0.92,1.947,2.043V204.02z"/>
			</g>
			<g>
				<path fill="#FFFFFF" d="M222.406,204.02c0,1.124-0.875,2.043-1.946,2.043h-1.925c-1.07,0-1.946-0.919-1.946-2.043v-2.021&#10;&#9;&#9;&#9;&#9;&#9;c0-1.123,0.876-2.043,1.946-2.043h1.925c1.071,0,1.946,0.92,1.946,2.043V204.02z"/>
			</g>
		</g>
	</g>
</g>
<path d="M 240.701004 168.832001 L 240.701004 158.037994 L 208.347 158.037994 L 208.347 141.820999" fill="none" stroke="#FFFFFF" stroke-width="2" stroke-linecap="round" stroke-linejoin="round" stroke-miterlimit="10"/>
</svg>